<?xml version="1.0" encoding="utf-8"?>
<!-- Generator: Adobe Illustrator 19.1.0, SVG Export Plug-In . SVG Version: 6.00 Build 0)  -->
<svg version="1.1" id="Layer_1" xmlns="http://www.w3.org/2000/svg" xmlns:xlink="http://www.w3.org/1999/xlink" x="0px" y="0px"
	 viewBox="0 0 125.1 41.3" style="enable-background:new 0 0 125.1 41.3;" xml:space="preserve">
<style type="text/css">
	.st0{fill:#FFFFFF;}
</style>
<rect y="37.1" class="st0" width="10.3" height="3.4"/>
<rect x="0" y="0.8" class="st0" width="10.3" height="35.2"/>
<rect x="15.2" y="37.1" class="st0" width="9.9" height="3.4"/>
<path class="st0" d="M25.1,18.5c0-2.5,0.1-4,0.3-4.5c0.2-0.6,0.6-0.8,1.3-0.8c0.7,0,1.1,0.2,1.2,0.7s0.2,1.9,0.2,4.1V36H38V17.7
	c0-2.8-0.2-4.9-0.5-6.1c-0.3-1.2-1-2.2-2.1-3c-1.1-0.8-2.5-1.2-4.2-1.2c-1.4,0-2.6,0.3-3.6,0.9c-1,0.6-1.9,1.5-2.6,2.7l0.2-3H15.2
	V36h9.9V18.5z"/>
<rect x="28.1" y="37.1" class="st0" width="9.9" height="3.4"/>
<path class="st0" d="M65.4,30.4c0-3.9-0.6-6.7-1.8-8.5c-1.2-1.7-4.1-4-8.7-6.7c-1.6-0.9-2.6-1.8-2.9-2.4c-0.4-0.7-0.5-1.7-0.5-3
	c0-1,0.2-1.8,0.5-2.3c0.3-0.5,0.8-0.8,1.4-0.8c0.6,0,1,0.2,1.2,0.6C54.9,7.7,55,8.5,55,9.9v2.9h9.6v-1.6c0-3.2-0.3-5.4-0.9-6.7
	c-0.6-1.3-1.9-2.4-3.7-3.3C58,0.4,55.7,0,53,0c-2.5,0-4.5,0.4-6.3,1.2C45,2,43.8,3.1,43,4.5c-0.8,1.4-1.2,3.6-1.2,6.7
	c0,2.1,0.3,3.8,0.8,5.2c0.5,1.4,1.2,2.4,2.1,3.2c0.8,0.8,2.5,2,5.1,3.7c2.6,1.7,4.2,2.9,4.8,3.6c0.6,0.7,1,2.2,1,4.6
	c0,1.1-0.2,1.9-0.5,2.4s-0.8,0.8-1.5,0.8c-0.7,0-1.2-0.2-1.4-0.6c-0.3-0.4-0.4-1.4-0.4-2.9v-4.8h-9.6v2.6c0,3,0.3,5.3,0.9,6.9
	c0,0.1,0.1,0.2,0.1,0.3h21.5C65.2,34.7,65.4,32.8,65.4,30.4"/>
<path class="st0" d="M46.9,39.8c2,1,4.3,1.6,7.1,1.6c2.5,0,4.7-0.5,6.6-1.4c1.6-0.8,2.8-1.7,3.5-2.8H43.8
	C44.5,38.2,45.5,39,46.9,39.8"/>
<path class="st0" d="M91.3,33.8c0.3-1.4,0.4-3.5,0.4-6.4v-8c0-2.3-0.2-4-0.5-5.1C91,13.1,90.4,12,89.5,11c-0.9-1.1-2.1-1.9-3.7-2.6
	c-1.6-0.7-3.5-1-5.7-1c-2.6,0-4.8,0.5-6.5,1.5c-1.7,1-2.9,2.4-3.5,4.1c-0.7,1.7-1,4.1-1,7.1v8.3c0,2.8,0.2,4.8,0.5,6.2
	c0.1,0.5,0.3,0.9,0.5,1.4h20.4C90.9,35.3,91.2,34.6,91.3,33.8 M81.9,32c0,1.4-0.1,2.3-0.3,2.7c-0.2,0.4-0.6,0.6-1.2,0.6
	c-0.6,0-1-0.2-1.2-0.7c-0.2-0.5-0.3-1.5-0.3-3V17c0-1.7,0.1-2.7,0.3-3.1c0.2-0.4,0.6-0.6,1.2-0.6c0.6,0,1,0.2,1.1,0.6
	c0.2,0.4,0.3,1.5,0.3,3.1V32z"/>
<path class="st0" d="M71.4,38.2c0.8,1,2,1.7,3.5,2.2c1.5,0.5,3.4,0.7,5.6,0.7c2,0,3.7-0.3,5.2-0.8c1.5-0.6,2.7-1.4,3.7-2.6
	c0.1-0.2,0.2-0.3,0.3-0.5H70.7C70.9,37.5,71.1,37.9,71.4,38.2"/>
<rect x="96.4" y="37.1" class="st0" width="9.9" height="3.4"/>
<path class="st0" d="M106.3,13.9h2.4V8.8h-4.2v-1c0-0.9,0.2-1.4,0.6-1.6c0.4-0.2,1.6-0.3,3.6-0.3v-5H105c-2.2,0-3.8,0.1-4.9,0.4
	c-1,0.3-1.9,0.7-2.4,1.3c-0.6,0.6-0.9,1.2-1.1,1.9c-0.1,0.7-0.2,2.1-0.2,4.3h-2v5.1h2V36h9.9V13.9z"/>
<path class="st0" d="M125.1,35.3c-1.6,0-2.5-0.1-2.8-0.4c-0.2-0.2-0.3-1.4-0.3-3.6V13.9h2.7V8.8H122V3.7h-9.9v5.1h-2.1v5.1h2.1v16.5
	c0,2.7,0.1,4.5,0.2,5.6h12.8V35.3z"/>
<path class="st0" d="M113.7,38.9c0.7,0.7,1.6,1.1,2.5,1.3c1,0.2,2.6,0.3,4.8,0.3h4v-3.4h-12.6C112.7,37.8,113.1,38.4,113.7,38.9"/>
</svg>
